<?xml version="1.0" standalone="no"?>
<!DOCTYPE svg PUBLIC "-//W3C//DTD SVG 20010904//EN"
 "http://www.w3.org/TR/2001/REC-SVG-20010904/DTD/svg10.dtd">
<svg version="1.0" xmlns="http://www.w3.org/2000/svg"
 width="177.000000pt" height="177.000000pt" viewBox="0 0 177.000000 177.000000"
 preserveAspectRatio="xMidYMid meet">
<metadata>
Created by potrace 1.13, written by Peter Selinger 2001-2015
</metadata>
<g transform="translate(0.000000,177.000000) scale(0.100000,-0.100000)"
fill="#000000" stroke="none">
<path d="M1366 1662 c-3 -5 -23 -12 -45 -16 -22 -3 -52 -12 -68 -20 -15 -8
-41 -20 -57 -27 -33 -16 -116 -91 -116 -106 0 -5 -9 -18 -19 -27 -19 -17 -21
-16 -47 26 -16 23 -40 57 -54 74 -14 17 -36 45 -50 63 -25 31 -40 39 -40 21 0
-5 -20 -40 -45 -77 -25 -38 -48 -78 -52 -90 -3 -13 -9 -23 -13 -23 -5 0 -10
-6 -12 -14 -2 -10 -21 2 -58 36 -63 57 -88 72 -171 98 -135 43 -162 35 -115
-37 21 -33 31 -79 27 -130 -1 -7 -13 0 -29 14 -103 97 -145 115 -293 128 -86
7 -104 -2 -71 -38 43 -46 72 -132 93 -273 11 -77 24 -157 30 -179 26 -97 89
-181 172 -229 46 -27 60 -46 34 -46 -14 0 -77 -92 -77 -113 0 -11 17 -16 68
-19 54 -3 77 -10 118 -35 28 -17 65 -34 83 -38 49 -11 131 -8 147 6 11 9 24 5
62 -20 27 -17 53 -31 59 -31 5 0 20 -12 34 -26 23 -25 24 -31 24 -168 l0 -142
-36 -38 c-34 -36 -40 -39 -119 -47 -45 -4 -85 -10 -87 -13 -11 -11 50 -26 85
-21 20 3 53 7 72 9 41 6 84 51 101 106 6 19 13 82 16 140 5 128 9 143 29 116
23 -32 18 -143 -11 -234 -38 -120 -32 -125 130 -120 92 3 100 5 100 23 0 22
-13 23 -142 10 l-73 -8 0 31 c0 17 4 33 9 36 18 11 34 138 27 216 -6 73 4 130
24 130 3 0 28 15 56 32 44 30 57 33 129 34 65 1 90 6 132 27 28 15 54 31 58
37 14 22 88 51 123 48 28 -2 38 1 40 14 4 22 -42 94 -69 108 l-21 12 21 19
c11 10 24 19 29 19 10 0 63 58 80 89 40 70 49 90 61 138 7 28 16 112 21 185 8
135 30 240 55 268 7 8 16 27 20 41 6 23 3 27 -20 33 -34 9 -138 -10 -195 -36
-25 -11 -71 -47 -104 -80 -32 -32 -61 -57 -64 -54 -12 12 -2 78 18 116 18 36
19 43 6 61 -7 11 -17 16 -20 11z m-611 -414 c0 -19 5 -33 13 -34 6 -1 16 -2
22 -3 5 0 8 -7 6 -13 -1 -7 -1 -10 1 -5 3 4 14 7 24 7 11 0 18 4 15 9 -11 18
19 17 38 0 17 -17 20 -17 31 -3 13 18 62 27 70 14 3 -5 26 -8 51 -8 39 0 45 2
41 18 -2 10 -1 24 4 31 7 11 9 11 9 1 0 -7 11 -37 24 -65 69 -148 25 -338 -91
-388 -101 -43 -189 -30 -256 39 -78 81 -95 233 -39 356 11 22 22 49 25 59 9
25 12 21 12 -15z m415 11 c0 -5 5 -7 10 -4 6 3 10 -3 10 -14 0 -27 13 -33 46
-21 21 8 29 8 36 -2 4 -7 8 -9 8 -4 0 5 7 3 15 -4 12 -10 15 -10 16 1 0 11 2
11 6 1 4 -10 8 -10 19 -1 24 20 18 -99 -9 -175 -27 -73 -98 -156 -159 -186
-47 -23 -56 -11 -28 37 37 62 52 153 41 241 -6 43 -15 90 -20 106 -13 34 -13
36 -1 36 6 0 10 -5 10 -11z m278 -57 c8 -1 11 2 7 8 -4 6 6 10 24 10 18 0 31
-5 32 -12 0 -10 2 -10 6 0 7 17 28 15 47 -4 9 -8 16 -11 16 -5 0 6 7 11 15 11
8 0 15 -4 15 -8 0 -24 -23 -128 -30 -137 -5 -5 -9 -14 -11 -20 -5 -23 -49 -84
-80 -109 -39 -33 -59 -42 -128 -54 -70 -13 -81 2 -40 54 47 60 75 131 90 229
8 60 15 82 18 65 3 -14 12 -26 19 -28z m-903 -8 c19 -1 33 2 29 7 -3 5 -1 9 5
9 5 0 12 -6 15 -12 3 -7 3 -1 0 15 -4 16 -2 27 5 27 6 0 11 -9 11 -21 0 -11 5
-17 10 -14 9 6 14 -17 13 -53 -1 -7 3 -55 7 -105 8 -89 41 -184 70 -202 5 -3
10 -12 10 -20 0 -30 -124 29 -168 79 -12 15 -37 54 -54 87 -28 54 -33 73 -36
158 l-4 96 25 -24 c15 -14 41 -25 62 -27z m-190 -4 c4 -6 14 -9 23 -8 12 2 17
-5 18 -22 6 -84 57 -199 121 -275 30 -35 32 -40 16 -46 -26 -10 -123 1 -158
19 -78 39 -125 96 -161 196 -19 53 -21 125 -3 137 19 12 136 11 144 -1z m1012
-352 c49 3 55 0 90 -35 l38 -37 -50 -14 c-28 -8 -59 -22 -70 -32 -11 -9 -27
-20 -35 -24 -8 -4 -26 -13 -40 -21 -14 -8 -40 -15 -57 -15 -20 0 -33 -5 -33
-12 0 -10 -3 -9 -9 1 -5 8 -16 11 -30 6 -19 -6 -21 -3 -21 37 0 24 -7 55 -14
70 -15 28 -15 28 42 57 45 23 65 27 97 23 22 -4 64 -5 92 -4z m-702 -51 c33
-13 39 -20 36 -39 -2 -13 -3 -44 -3 -70 1 -53 6 -51 -89 -48 -42 1 -73 10
-125 36 -37 19 -78 34 -90 34 -34 0 -36 25 -4 61 24 28 34 33 72 31 23 -1 59
3 78 8 41 10 71 7 125 -13z m431 -39 c15 -30 15 -34 0 -63 -10 -18 -23 -32
-29 -33 -7 -1 -38 -6 -70 -12 -80 -14 -236 -8 -248 11 -13 22 -11 83 5 104 13
17 18 18 48 8 60 -22 116 -26 166 -13 26 7 51 17 57 21 21 20 55 9 71 -23z"/>
</g>
</svg>
